<svg width="64" height="64" viewBox="0 0 64 64" fill="none" xmlns="http://www.w3.org/2000/svg">
  <rect width="64" height="64" rx="18" fill="url(#paint0_linear_1_1)"/>
  <path d="M15 43.5C15 29.2 23.4 18 35.1 18C43.8 18 49 23.6 49 31.4C49 40.4 42.3 47 31.2 47H15V43.5Z" fill="white" fill-opacity="0.96"/>
  <path d="M30 38.8C30 31 34.1 24.4 40.4 20.7C43.2 22.7 45 25.8 45 29.7C45 37 39.1 42.6 31.2 42.6H30V38.8Z" fill="#4A6BFF"/>
  <path d="M27.6 28.2C27.6 23.5 30 19.6 34.1 18C28.7 18.3 24.1 22.2 21.5 28.1L27.6 28.2Z" fill="#FF8B5A"/>
  <defs>
    <linearGradient id="paint0_linear_1_1" x1="6" y1="8" x2="56" y2="58" gradientUnits="userSpaceOnUse">
      <stop stop-color="#FF6B2C"/>
      <stop offset="1" stop-color="#4A6BFF"/>
    </linearGradient>
  </defs>
</svg>
